<?xml version="1.0" encoding="UTF-8"?><svg id="Layer_1" xmlns="http://www.w3.org/2000/svg" viewBox="0 0 1500 500"><defs><style>.cls-1{fill:#fff;}.cls-2{fill:#614c2c;}</style></defs><path class="cls-2" d="m1500,424c-15.94-26.2-68.4-116.78-211.5-167.69-65.5-23.31-170.5-22.31-276.99,21.18-115.02,46.96-190.16,121.55-295.01,132.66-160.96,17.06-226.22-100.56-387.14-83.23-71.27,7.67-131.36,42.08-192.36,79.08C79.22,441.04,2.33,496.32,0,500h1500v-76Z"/><g><path d="m862.9,356c-.53-1.77-1.86-2.96-3.14-4.18-3.57-3.41-7.12-6.84-10.71-10.22-.49-.47-1.14-.84-1.78-1.07-2.33-.81-4.68-1.56-7.05-2.28-.75-.23-1-.6-.95-1.39.11-1.82.12-3.65.18-5.48.05-1.43.12-1.5,1.51-1.7,2-.28,4.01-.55,6.01-.83h0c2.07-.29,4.14-.54,6.2-.87.87-.14,1.36.11,1.72.93,3.82,8.57,7.66,17.14,11.49,25.71,0,0,0,0,0,0,1.27,0,2.25.73,2.77,1.74.05,0,.1,0,.15,0,.42-.2.85-.35,1.32-.42.1-.01.2-.02.29-.02-.1-.12-.19-.27-.27-.45-3.99-9-8.02-17.97-12.04-26.96-.55-1.24-.54-1.24.61-2.08,2.94-2.15,3.35-6.36.85-8.97-1.49-1.55-3.31-2.11-5.43-1.84-1.71.22-1.71.2-2.42-1.39-.65-1.46-1.29-2.93-1.97-4.39-.57-1.21-1.59-1.68-2.53-1.21-.98.49-1.23,1.49-.68,2.73.55,1.23,1.1,2.46,1.64,3.69.23.53.4,1.11-.34,1.36-.8.27-1.57.38-2.37-.21-3.07-2.27-6.18-4.49-9.27-6.73-.92-.66-.95-1.15-.14-1.92,3.47-3.31,4.57-8.19,2.83-12.55-1.74-4.33-6.03-7.15-10.82-7.1-4.41.05-8.57,2.92-10.26,7.08-1.69,4.18-.73,9.2,2.45,12.19,1.55,1.46,1.91,1.55-.12,3.11-.91.7-1.16.7-1.87-.19-2.22-2.8-5.79-3.86-8.96-2.67-4.16,1.57-6.21,6.28-4.52,10.46.3.75.33,1.27-.3,1.88-.32.31-.45.92-.47,1.4-.27,6.6-.52,13.2-.74,19.8-.11,3.22,1.84,5.88,4.8,6.26,2.02.26,4.09.22,6.14.2,1.18-.01,1.44.09,1.52,1.26.21,2.91.4,5.83.64,8.74.13,1.61.02,3.15-.53,4.72-1.3,3.69-2.45,7.43-3.65,11.16-.69,2.15-.47,4.23.6,6.22.55.44,1.07.96,1.61,1.54.27.29.47.5.65.67,1.69.51,3.48.75,5.18.52,2.55-.36,4.66-2.48,6.76-3.84.13-.08.26-.15.38-.21,0-.23.05-.51.17-.87,1.39-4.27,2.7-8.56,4.21-12.79.76-2.12.97-4.21.71-6.41-.16-1.37-.23-2.75-.31-4.13-.06-1.13.4-1.48,1.47-1.14,1.71.54,3.43,1.06,5.12,1.66.52.19,1.04.52,1.44.91,3.02,2.87,5.97,5.82,9.05,8.63.92.84,2.08,1.43,3.22,1.99,2.9.04,5.59.09,8.08-1.71.32-.23.63-.46.93-.69.15-.16.31-.32.5-.45.02-.05.04-.11.07-.18.19-.54.35-1.07.49-1.62.29-1.2.29-2.4.2-3.63-.02-.25,0-.5.06-.74-.13-.23-.22-.58-.37-1.06Zm-49.81-37.45c-1.92.26-3.78-1.2-4.01-3.16-.23-1.9,1.11-3.74,2.92-4.01,1.93-.29,3.73,1.11,4.01,3.12.28,2-1.01,3.8-2.92,4.06Zm15.01-12.35c-3.06-.37-5.57-2.62-6.13-5.55-.59-3.1.83-6,3.57-7.53,2.76-1.54,6.02-.81,7.72.76,2.61,2.42,3.21,5.26,1.87,8.25-.97,2.16-2.61,3.43-4.87,3.95m6.65,8.94c1.24.89,2.41,1.73,3.58,2.56,1.3.94,2.62,1.85,3.9,2.82.82.62,1.7.83,2.71.69,2.76-.38,5.53-.72,8.3-1.09.79-.11,1.46.15,1.75.86.19.48.06,1.08.08,1.62-.11,0-.21,0-.32,0-.07-.14-.14-.28-.21-.41.03,1.1-.73,1.14-1.48,1.24-5.05.68-10.11,1.34-15.15,2.11-1.21.18-2.17-.16-3.12-.75-1.39-.86-2.73-1.8-4.15-2.61-1.78-1.02-3.75,0-3.91,1.97-.09,1.06.4,1.85,1.28,2.42.67.43,1.34.88,2.01,1.32.67.44,1.33.87,2,1.31-2.16,3.89-9.25,7.27-13.69,7.83.03-1.35.06-2.68.1-4,.15-4.42.4-8.84.43-13.25.04-6.04,4.28-7.91,8.47-8.2,1.62-.11,3.03.31,4.29,1.33.6.48,1.3.84,1.86,1.36m-7.7,38.96c.11.17.3.32.32.5.11,1.44.2,2.88.28,4.32,0,.16-.09.33-.05.47.73,2.82-.63,5.27-1.41,7.81-1.05,3.46-2.22,6.89-3.35,10.33-.72,2.18-2.6,3.22-4.63,2.58-1.95-.62-2.83-2.59-2.13-4.76,1.39-4.3,2.8-8.59,4.17-12.9.18-.56.25-1.2.22-1.79-.11-2.08-.3-4.16-.45-6.23-.02-.31,0-.63,0-.83,1.8.14,3.55.24,5.29.44m-1.84-5.26c-3.16-.1-4.27-2.22-4.08-4.98.01-.2.38-.48.63-.55,1.02-.29,2.04-.69,3.08-.73,1.38-.05,2.4-.89,3.59-1.33,1.26-.46,2.47-1.08,3.63-1.74,1.25-.71,2.41-1.56,3.73-2.43-.02,1-.03,1.93-.05,2.87-.03,1.52.5,2.32,1.95,2.8,2.71.9,5.43,1.74,8.13,2.66.61.21,1.22.56,1.71.99,2.1,1.87,4.19,3.77,6.21,5.72,1.86,1.8,3.67,3.67,5.44,5.56,1.1,1.18.85,3.37-.43,4.64-1.25,1.23-3.38,1.32-4.73.08-2.15-1.97-4.24-4-6.35-6.01-1.32-1.26-2.59-2.58-3.97-3.79-.55-.48-1.29-.8-1.99-1.07-1.08-.41-2.23-.63-3.28-1.09-3.21-1.39-6.59-1.47-9.99-1.52-.61,0-1.22,0-1.82-.08"/><path d="m861.21,317.49c3.11,2.71,3.01,7.42-.16,10.02-.94.77-.9,1.33-.46,2.3,3.02,6.65,5.98,13.32,8.96,19.99.73,1.64,1.46,3.27,2.18,4.91.11.25.18.51.27.77l-.23.15c-.17-.2-.39-.38-.49-.61-2.2-4.91-4.39-9.82-6.58-14.74-1.8-4.04-3.6-8.07-5.4-12.1-.19-.42-.32-.74.17-1.06,2.88-1.87,3.97-5.98,1.95-9.18-.05-.08-.08-.16-.2-.45Z"/><path d="m836.76,308.48c4.82-4.94,5.45-10.36,2.2-16.41.56.87,1.19,1.7,1.66,2.61,2.42,4.68,1.48,10.35-2.17,13.92-.66.64-1.09.61-1.7-.12Z"/><path d="m815.53,348.35c-.17.23-.33.64-.48.64-2.58-.04-5.21.3-7.63-.94-.11-.06-.2-.14-.2-.14,2.62.14,5.32.28,8.31.44Z"/><path d="m853.96,314.88c-.69-.1-2.07-2.77-3.04-5.74,1.56,1.59,2,3.76,3.04,5.74Z"/><path class="cls-1" d="m853.29,329.68c-3.72.51-7.43,1.04-11.15,1.52-.69.09-.89.36-.9,1.03-.03,1.75-.13,3.5-.21,5.29-.69.02-1.04-.12-.99-.91.12-1.73.15-3.46.17-5.19,0-.67.26-.96.94-1.05,4.07-.52,8.14-1.07,12.2-1.64.63-.09.8.18.88.78-.33.06-.63.13-.93.18Z"/><path d="m839.85,355.51c-2.1-.69-4.2-1.37-6.48-2.12.13,1.86.21,3.46.38,5.05.2,1.93.07,3.78-.58,5.66-1.54,4.39-2.91,8.83-4.34,13.26-.06.19-.08.39-.12.59.32-.05.64-.04.94.02.28-.16.46-.46.59-.88,1.25-3.91,2.53-7.8,3.82-11.7.57-1.71,1.08-3.41.76-5.26-.15-.88-.18-1.79-.24-2.68-.06-1.03-.09-2.07-.14-3.25,1.9.59,3.6,1.13,5.31,1.66.04-.12.07-.23.11-.35Z"/><path d="m841.02,337.52c-.69.02-1.04-.12-.99-.91.12-1.73.15-3.46.17-5.19,0-.67.26-.96.94-1.05,4.07-.52,8.14-1.07,12.2-1.64.63-.09.8.18.88.78-.33.06-.63.13-.93.18-3.72.51-7.43,1.04-11.15,1.52-.69.09-.89.36-.9,1.03-.03,1.75-.13,3.5-.21,5.29Z"/></g></svg>